<svg width="119" height="44" viewBox="0 0 119 44" fill="none" xmlns="http://www.w3.org/2000/svg">
<path d="M49.014 20V9.524H45.198V7.22H55.602V9.524H51.768V20H49.014ZM59.86 20.216C58.876 20.216 58.018 20.012 57.286 19.604C56.566 19.184 56.002 18.596 55.594 17.84C55.198 17.084 55 16.196 55 15.176C55 14.156 55.198 13.274 55.594 12.53C56.002 11.774 56.566 11.186 57.286 10.766C58.006 10.346 58.858 10.136 59.842 10.136C60.802 10.136 61.636 10.346 62.344 10.766C63.052 11.186 63.598 11.786 63.982 12.566C64.378 13.346 64.576 14.276 64.576 15.356V15.896H57.79C57.826 16.664 58.03 17.234 58.402 17.606C58.786 17.978 59.29 18.164 59.914 18.164C60.37 18.164 60.748 18.068 61.048 17.876C61.36 17.684 61.582 17.39 61.714 16.994L64.432 17.156C64.18 18.116 63.646 18.866 62.83 19.406C62.014 19.946 61.024 20.216 59.86 20.216ZM57.79 14.24H61.804C61.768 13.532 61.57 13.004 61.21 12.656C60.862 12.308 60.406 12.134 59.842 12.134C59.278 12.134 58.81 12.32 58.438 12.692C58.078 13.052 57.862 13.568 57.79 14.24ZM70.6186 20.216C69.6346 20.216 68.7766 20.012 68.0446 19.604C67.3126 19.184 66.7426 18.596 66.3346 17.84C65.9266 17.084 65.7226 16.196 65.7226 15.176C65.7226 14.156 65.9266 13.274 66.3346 12.53C66.7426 11.774 67.3126 11.186 68.0446 10.766C68.7766 10.346 69.6346 10.136 70.6186 10.136C71.4706 10.136 72.2326 10.286 72.9046 10.586C73.5886 10.886 74.1406 11.318 74.5606 11.882C74.9806 12.446 75.2386 13.124 75.3346 13.916L72.5446 14.042C72.4606 13.442 72.2446 12.992 71.8966 12.692C71.5606 12.38 71.1346 12.224 70.6186 12.224C69.9466 12.224 69.4246 12.482 69.0526 12.998C68.6806 13.514 68.4946 14.24 68.4946 15.176C68.4946 16.112 68.6806 16.844 69.0526 17.372C69.4246 17.888 69.9466 18.146 70.6186 18.146C71.1346 18.146 71.5666 17.99 71.9146 17.678C72.2626 17.354 72.4726 16.868 72.5446 16.22L75.3346 16.328C75.2506 17.12 74.9986 17.81 74.5786 18.398C74.1706 18.974 73.6246 19.424 72.9406 19.748C72.2686 20.06 71.4946 20.216 70.6186 20.216ZM76.8267 20V7.22H79.5267V12.602H79.1667C79.2627 12.038 79.4487 11.576 79.7247 11.216C80.0127 10.856 80.3667 10.586 80.7867 10.406C81.2187 10.226 81.6867 10.136 82.1907 10.136C82.9107 10.136 83.5107 10.292 83.9907 10.604C84.4707 10.916 84.8307 11.348 85.0707 11.9C85.3227 12.452 85.4487 13.082 85.4487 13.79V20H82.7487V14.438C82.7487 13.718 82.6347 13.178 82.4067 12.818C82.1907 12.458 81.8187 12.278 81.2907 12.278C80.7387 12.278 80.3067 12.464 79.9947 12.836C79.6827 13.208 79.5267 13.766 79.5267 14.51V20H76.8267ZM87.3693 20V17.876L92.6793 12.368H87.5853V10.352H95.9193V12.476L90.5193 17.984H96.0633V20H87.3693ZM100.8 20.216C99.804 20.216 98.988 19.988 98.352 19.532C97.728 19.064 97.416 18.416 97.416 17.588C97.416 16.736 97.68 16.082 98.208 15.626C98.748 15.158 99.54 14.816 100.584 14.6L103.698 13.988C103.698 13.364 103.554 12.896 103.266 12.584C102.99 12.26 102.588 12.098 102.06 12.098C101.544 12.098 101.142 12.218 100.854 12.458C100.566 12.686 100.38 13.028 100.296 13.484L97.578 13.358C97.758 12.302 98.232 11.504 99 10.964C99.78 10.412 100.8 10.136 102.06 10.136C103.5 10.136 104.58 10.478 105.3 11.162C106.032 11.846 106.398 12.848 106.398 14.168V17.462C106.398 17.738 106.44 17.924 106.524 18.02C106.62 18.104 106.758 18.146 106.938 18.146H107.208V20C107.124 20.024 106.986 20.048 106.794 20.072C106.614 20.096 106.434 20.108 106.254 20.108C105.87 20.108 105.51 20.042 105.174 19.91C104.85 19.778 104.586 19.556 104.382 19.244C104.178 18.92 104.076 18.464 104.076 17.876L104.31 18.056C104.19 18.488 103.974 18.866 103.662 19.19C103.362 19.514 102.966 19.766 102.474 19.946C101.994 20.126 101.436 20.216 100.8 20.216ZM101.448 18.362C101.892 18.362 102.282 18.278 102.618 18.11C102.954 17.93 103.218 17.672 103.41 17.336C103.602 17 103.698 16.604 103.698 16.148V15.68L101.502 16.148C101.07 16.232 100.74 16.376 100.512 16.58C100.296 16.772 100.188 17.024 100.188 17.336C100.188 17.66 100.296 17.912 100.512 18.092C100.728 18.272 101.04 18.362 101.448 18.362ZM108.27 20V17.876L113.58 12.368H108.486V10.352H116.82V12.476L111.42 17.984H116.964V20H108.27Z" fill="#EEEEEE"/>
<path d="M46.104 40.5V31.98H51.456V32.988H47.136V35.736H51.312V36.72H47.136V39.492H51.552V40.5H46.104ZM53.2173 40.5V31.98H55.8573C57.1693 31.98 58.1773 32.352 58.8813 33.096C59.5933 33.832 59.9493 34.884 59.9493 36.252C59.9493 37.612 59.6013 38.66 58.9053 39.396C58.2093 40.132 57.2173 40.5 55.9293 40.5H53.2173ZM54.2493 39.492H55.8573C56.8573 39.492 57.6093 39.224 58.1133 38.688C58.6173 38.144 58.8693 37.332 58.8693 36.252C58.8693 35.156 58.6173 34.34 58.1133 33.804C57.6093 33.26 56.8573 32.988 55.8573 32.988H54.2493V39.492ZM61.4321 40.5V31.98H64.6601C65.2601 31.98 65.7761 32.084 66.2081 32.292C66.6401 32.5 66.9721 32.8 67.2041 33.192C67.4441 33.576 67.5641 34.032 67.5641 34.56C67.5641 34.944 67.4721 35.288 67.2881 35.592C67.1121 35.888 66.8841 36.124 66.6041 36.3C66.3241 36.476 66.0321 36.572 65.7281 36.588L65.6561 36.48C66.1761 36.48 66.5841 36.6 66.8801 36.84C67.1841 37.08 67.3601 37.464 67.4081 37.992L67.6481 40.5H66.6041L66.3881 38.1C66.3561 37.748 66.2281 37.488 66.0041 37.32C65.7881 37.152 65.4321 37.068 64.9361 37.068H62.4641V40.5H61.4321ZM62.4641 36.06H64.7921C65.3121 36.06 65.7241 35.928 66.0281 35.664C66.3321 35.4 66.4841 35.024 66.4841 34.536C66.4841 34.04 66.3281 33.66 66.0161 33.396C65.7041 33.124 65.2521 32.988 64.6601 32.988H62.4641V36.06ZM72.4946 40.5V31.98H75.5546C76.5066 31.98 77.2466 32.208 77.7746 32.664C78.3026 33.12 78.5666 33.752 78.5666 34.56C78.5666 35.104 78.4466 35.576 78.2066 35.976C77.9666 36.368 77.6226 36.668 77.1746 36.876C76.7266 37.084 76.1866 37.188 75.5546 37.188H73.5266V40.5H72.4946ZM73.5266 36.18H75.5546C76.1946 36.18 76.6746 36.044 76.9946 35.772C77.3226 35.5 77.4866 35.096 77.4866 34.56C77.4866 34.04 77.3226 33.648 76.9946 33.384C76.6746 33.12 76.1946 32.988 75.5546 32.988H73.5266V36.18ZM81.4033 40.5C81.0353 40.5 80.7353 40.404 80.5033 40.212C80.2713 40.02 80.1553 39.716 80.1553 39.3V31.98H81.1633V39.216C81.1633 39.344 81.1953 39.444 81.2593 39.516C81.3313 39.58 81.4313 39.612 81.5593 39.612H82.1113V40.5H81.4033ZM85.0705 40.644C84.4145 40.644 83.8905 40.492 83.4985 40.188C83.1145 39.884 82.9225 39.46 82.9225 38.916C82.9225 38.372 83.0825 37.944 83.4025 37.632C83.7225 37.32 84.2305 37.1 84.9265 36.972L87.1825 36.552C87.1825 36.016 87.0545 35.616 86.7985 35.352C86.5505 35.088 86.1745 34.956 85.6705 34.956C85.2305 34.956 84.8825 35.056 84.6265 35.256C84.3705 35.448 84.1945 35.728 84.0985 36.096L83.0305 36.012C83.1505 35.412 83.4385 34.928 83.8945 34.56C84.3585 34.184 84.9505 33.996 85.6705 33.996C86.4865 33.996 87.1105 34.228 87.5425 34.692C87.9745 35.148 88.1905 35.78 88.1905 36.588V39.216C88.1905 39.36 88.2145 39.464 88.2625 39.528C88.3185 39.584 88.4065 39.612 88.5265 39.612H88.7785V40.5C88.7465 40.508 88.6945 40.512 88.6225 40.512C88.5505 40.52 88.4745 40.524 88.3945 40.524C88.1065 40.524 87.8705 40.48 87.6865 40.392C87.5105 40.296 87.3825 40.152 87.3025 39.96C87.2225 39.76 87.1825 39.5 87.1825 39.18L87.3025 39.204C87.2465 39.476 87.1105 39.724 86.8945 39.948C86.6785 40.164 86.4105 40.336 86.0905 40.464C85.7705 40.584 85.4305 40.644 85.0705 40.644ZM85.1665 39.756C85.5905 39.756 85.9505 39.676 86.2465 39.516C86.5505 39.348 86.7825 39.124 86.9425 38.844C87.1025 38.556 87.1825 38.236 87.1825 37.884V37.428L85.1185 37.812C84.6865 37.892 84.3865 38.016 84.2185 38.184C84.0585 38.344 83.9785 38.556 83.9785 38.82C83.9785 39.116 84.0825 39.348 84.2905 39.516C84.5065 39.676 84.7985 39.756 85.1665 39.756ZM91.9286 40.5C91.3526 40.5 90.9246 40.368 90.6446 40.104C90.3726 39.84 90.2366 39.428 90.2366 38.868V32.652H91.2446V38.844C91.2446 39.132 91.3086 39.332 91.4366 39.444C91.5646 39.556 91.7606 39.612 92.0246 39.612H92.9366V40.5H91.9286ZM89.3006 35.028V34.14H92.9366V35.028H89.3006ZM94.5137 40.5V33.564C94.5137 33.092 94.6497 32.712 94.9217 32.424C95.1937 32.128 95.6177 31.98 96.1937 31.98H97.2017V32.868H96.2657C96.0177 32.868 95.8297 32.936 95.7017 33.072C95.5817 33.208 95.5217 33.396 95.5217 33.636V40.5H94.5137ZM93.6497 35.028V34.14H97.1177V35.028H93.6497ZM100.581 40.644C99.9967 40.644 99.4847 40.508 99.0447 40.236C98.6047 39.964 98.2647 39.58 98.0247 39.084C97.7847 38.58 97.6647 37.992 97.6647 37.32C97.6647 36.64 97.7847 36.052 98.0247 35.556C98.2647 35.06 98.6047 34.676 99.0447 34.404C99.4847 34.132 99.9967 33.996 100.581 33.996C101.165 33.996 101.673 34.132 102.105 34.404C102.545 34.676 102.885 35.06 103.125 35.556C103.365 36.052 103.485 36.64 103.485 37.32C103.485 37.992 103.365 38.58 103.125 39.084C102.885 39.58 102.545 39.964 102.105 40.236C101.673 40.508 101.165 40.644 100.581 40.644ZM100.581 39.684C101.165 39.684 101.617 39.476 101.937 39.06C102.265 38.636 102.429 38.056 102.429 37.32C102.429 36.584 102.265 36.008 101.937 35.592C101.617 35.168 101.165 34.956 100.581 34.956C99.9967 34.956 99.5407 35.168 99.2127 35.592C98.8847 36.008 98.7207 36.584 98.7207 37.32C98.7207 38.056 98.8847 38.636 99.2127 39.06C99.5407 39.476 99.9967 39.684 100.581 39.684ZM104.858 40.5V34.14H105.746L105.794 35.748L105.698 35.712C105.778 35.168 105.95 34.772 106.214 34.524C106.486 34.268 106.846 34.14 107.294 34.14H107.918V35.1H107.306C106.986 35.1 106.718 35.16 106.502 35.28C106.294 35.392 106.134 35.564 106.022 35.796C105.918 36.02 105.866 36.308 105.866 36.66V40.5H104.858ZM108.925 40.5V34.14H109.849L109.885 35.748L109.741 35.7C109.813 35.348 109.937 35.048 110.113 34.8C110.297 34.544 110.521 34.348 110.785 34.212C111.049 34.068 111.341 33.996 111.661 33.996C112.213 33.996 112.661 34.148 113.005 34.452C113.357 34.756 113.577 35.18 113.665 35.724L113.473 35.712C113.537 35.344 113.653 35.036 113.821 34.788C113.997 34.532 114.221 34.336 114.493 34.2C114.765 34.064 115.077 33.996 115.429 33.996C115.885 33.996 116.269 34.092 116.581 34.284C116.893 34.468 117.129 34.74 117.289 35.1C117.449 35.46 117.529 35.896 117.529 36.408V40.5H116.521V36.624C116.521 36.048 116.409 35.616 116.185 35.328C115.961 35.032 115.629 34.884 115.189 34.884C114.893 34.884 114.633 34.956 114.409 35.1C114.193 35.244 114.025 35.452 113.905 35.724C113.785 35.988 113.725 36.312 113.725 36.696V40.5H112.717V36.696C112.717 36.128 112.617 35.684 112.417 35.364C112.217 35.044 111.881 34.884 111.409 34.884C111.113 34.884 110.853 34.956 110.629 35.1C110.413 35.244 110.241 35.452 110.113 35.724C109.993 35.996 109.933 36.32 109.933 36.696V40.5H108.925Z" fill="#EEEEEE" fill-opacity="0.6"/>
<path d="M30.8337 24.0415C30.8337 31.7499 25.4378 35.6041 19.0245 37.8395C18.6887 37.9533 18.3239 37.9478 17.9916 37.8241C11.5628 35.6041 6.16699 31.7499 6.16699 24.0415V13.2499C6.16699 12.841 6.32942 12.4489 6.61854 12.1598C6.90765 11.8706 7.29978 11.7082 7.70866 11.7082C10.792 11.7082 14.6462 9.85821 17.3287 7.51488C17.6553 7.23584 18.0707 7.08252 18.5003 7.08252C18.9299 7.08252 19.3454 7.23584 19.672 7.51488C22.3699 9.87363 26.2087 11.7082 29.292 11.7082C29.7009 11.7082 30.093 11.8706 30.3821 12.1598C30.6712 12.4489 30.8337 12.841 30.8337 13.2499V24.0415Z" stroke="#5E1BB5" stroke-width="2.66667" stroke-linecap="round" stroke-linejoin="round"/>
</svg>
