<svg width="37" height="37" viewBox="0 0 37 37" fill="none" xmlns="http://www.w3.org/2000/svg">
<path d="M30.8337 20.0415C30.8337 27.7499 25.4378 31.6041 19.0245 33.8395C18.6887 33.9533 18.3239 33.9478 17.9916 33.8241C11.5628 31.6041 6.16699 27.7499 6.16699 20.0415V9.24988C6.16699 8.841 6.32942 8.44888 6.61854 8.15976C6.90765 7.87064 7.29978 7.70821 7.70866 7.70821C10.792 7.70821 14.6462 5.85821 17.3287 3.51488C17.6553 3.23584 18.0707 3.08252 18.5003 3.08252C18.9299 3.08252 19.3454 3.23584 19.672 3.51488C22.3699 5.87363 26.2087 7.70821 29.292 7.70821C29.7009 7.70821 30.093 7.87064 30.3821 8.15976C30.6712 8.44888 30.8337 8.841 30.8337 9.24988V20.0415Z" stroke="#5E1BB5" stroke-width="2.66667" stroke-linecap="round" stroke-linejoin="round"/>
</svg>
